<svg width="36" height="31" viewBox="0 0 36 31" fill="none" xmlns="http://www.w3.org/2000/svg">
<g filter="url(#filter0_d_4_396)">
<path fill-rule="evenodd" clip-rule="evenodd" d="M23.5 12.75C23.5 15.7876 21.0376 18.25 18 18.25C14.9624 18.25 12.5 15.7876 12.5 12.75C12.5 9.71243 14.9624 7.25 18 7.25C21.0376 7.25 23.5 9.71243 23.5 12.75ZM21.5 12.75C21.5 14.683 19.933 16.25 18 16.25C16.067 16.25 14.5 14.683 14.5 12.75C14.5 10.817 16.067 9.25 18 9.25C19.933 9.25 21.5 10.817 21.5 12.75Z" fill="white"/>
<path fill-rule="evenodd" clip-rule="evenodd" d="M14.2208 1C13.3599 1 12.5956 1.55086 12.3234 2.36754L11.7792 4H7.5C5.84315 4 4.5 5.34315 4.5 7V19.5C4.5 21.1569 5.84315 22.5 7.5 22.5H18H28.5C30.1569 22.5 31.5 21.1569 31.5 19.5V7C31.5 5.34315 30.1569 4 28.5 4H24.2208L23.6766 2.36754C23.4044 1.55086 22.6401 1 21.7792 1H14.2208ZM14.2208 3H21.7792L22.3234 4.63246C22.5956 5.44914 23.3599 6 24.2208 6H28.5C29.0523 6 29.5 6.44772 29.5 7V19.5C29.5 20.0523 29.0523 20.5 28.5 20.5H18H7.5C6.94772 20.5 6.5 20.0523 6.5 19.5V7C6.5 6.44772 6.94772 6 7.5 6H11.7792C12.6401 6 13.4044 5.44914 13.6766 4.63246L14.2208 3Z" fill="white"/>
<path fill-rule="evenodd" clip-rule="evenodd" d="M23.5 12.75C23.5 15.7876 21.0376 18.25 18 18.25C14.9624 18.25 12.5 15.7876 12.5 12.75C12.5 9.71243 14.9624 7.25 18 7.25C21.0376 7.25 23.5 9.71243 23.5 12.75ZM21.5 12.75C21.5 14.683 19.933 16.25 18 16.25C16.067 16.25 14.5 14.683 14.5 12.75C14.5 10.817 16.067 9.25 18 9.25C19.933 9.25 21.5 10.817 21.5 12.75Z" stroke="black"/>
<path fill-rule="evenodd" clip-rule="evenodd" d="M14.2208 1C13.3599 1 12.5956 1.55086 12.3234 2.36754L11.7792 4H7.5C5.84315 4 4.5 5.34315 4.5 7V19.5C4.5 21.1569 5.84315 22.5 7.5 22.5H18H28.5C30.1569 22.5 31.5 21.1569 31.5 19.5V7C31.5 5.34315 30.1569 4 28.5 4H24.2208L23.6766 2.36754C23.4044 1.55086 22.6401 1 21.7792 1H14.2208ZM14.2208 3H21.7792L22.3234 4.63246C22.5956 5.44914 23.3599 6 24.2208 6H28.5C29.0523 6 29.5 6.44772 29.5 7V19.5C29.5 20.0523 29.0523 20.5 28.5 20.5H18H7.5C6.94772 20.5 6.5 20.0523 6.5 19.5V7C6.5 6.44772 6.94772 6 7.5 6H11.7792C12.6401 6 13.4044 5.44914 13.6766 4.63246L14.2208 3Z" stroke="black"/>
</g>
<defs>
<filter id="filter0_d_4_396" x="0" y="0.5" width="36" height="30.5" filterUnits="userSpaceOnUse" color-interpolation-filters="sRGB">
<feFlood flood-opacity="0" result="BackgroundImageFix"/>
<feColorMatrix in="SourceAlpha" type="matrix" values="0 0 0 0 0 0 0 0 0 0 0 0 0 0 0 0 0 0 127 0" result="hardAlpha"/>
<feOffset dy="4"/>
<feGaussianBlur stdDeviation="2"/>
<feComposite in2="hardAlpha" operator="out"/>
<feColorMatrix type="matrix" values="0 0 0 0 0 0 0 0 0 0 0 0 0 0 0 0 0 0 0.25 0"/>
<feBlend mode="normal" in2="BackgroundImageFix" result="effect1_dropShadow_4_396"/>
<feBlend mode="normal" in="SourceGraphic" in2="effect1_dropShadow_4_396" result="shape"/>
</filter>
</defs>
</svg>
