<svg width="19" height="18" viewBox="0 0 19 18" fill="none" xmlns="http://www.w3.org/2000/svg">
<g clip-path="url(#clip0_1717_146)">
<path d="M4.48913 10.8775L3.86258 13.2165L1.57257 13.2649C0.88819 11.9956 0.5 10.5433 0.5 8.99992C0.5 7.50752 0.862949 6.10016 1.5063 4.86095H1.50679L3.54555 5.23473L4.43865 7.26125C4.25172 7.8062 4.14984 8.39119 4.14984 8.99992C4.14991 9.66056 4.26958 10.2935 4.48913 10.8775Z" fill="#FBBB00"/>
<path d="M18.342 7.31856C18.4454 7.86298 18.4993 8.42523 18.4993 8.99985C18.4993 9.64419 18.4316 10.2727 18.3025 10.879C17.8644 12.942 16.7196 14.7435 15.1338 16.0183L15.1333 16.0178L12.5653 15.8868L12.2019 13.618C13.2542 13.0009 14.0766 12.0351 14.5097 10.879H9.69727V7.31856H14.58H18.342Z" fill="#518EF8"/>
<path d="M15.1334 16.018L15.1339 16.0184C13.5916 17.2581 11.6323 17.9999 9.49958 17.9999C6.07221 17.9999 3.09237 16.0842 1.57227 13.2651L4.48883 10.8776C5.24886 12.9061 7.2056 14.35 9.49958 14.35C10.4856 14.35 11.4094 14.0835 12.202 13.6181L15.1334 16.018Z" fill="#28B446"/>
<path d="M15.244 2.07194L12.3285 4.45888C11.5081 3.9461 10.5384 3.64988 9.49945 3.64988C7.15353 3.64988 5.1602 5.16006 4.43824 7.26122L1.50635 4.86092H1.50586C3.00371 1.97305 6.02113 0 9.49945 0C11.6831 0 13.6854 0.777857 15.244 2.07194Z" fill="#F14336"/>
</g>
<defs>
<clipPath id="clip0_1717_146">
<rect width="17.9998" height="18" fill="white" transform="translate(0.5)"/>
</clipPath>
</defs>
</svg>
